{"glyphs":{"0":{"ha":632,"x_min":52,"x_max":580,"o":"m 316.00 -8.00 l 316.00 -8.00 b 236.67 -8.00 172.83 23.17 124.50 85.50 b 76.17 147.83 52.00 233.67 52.00 343.00 l 52.00 343.00 b 52.00 448.33 75.67 533.17 123.00 597.50 b 170.33 661.83 234.67 694.00 316.00 694.00 l 316.00 694.00 b 395.33 694.00 459.17 663.00 507.50 601.00 b 555.83 539.00 580.00 453.00 580.00 343.00 l 580.00 343.00 b 580.00 237.67 556.50 152.83 509.50 88.50 b 462.50 24.17 398.00 -8.00 316.00 -8.00 z m 316.00 100.00 l 316.00 100.00 b 362.00 100.00 397.83 121.33 423.50 164.00 b 449.17 206.67 462.00 266.33 462.00 343.00 b 462.00 419.67 449.00 479.50 423.00 522.50 b 397.00 565.50 361.33 587.00 316.00 587.00 b 270.67 587.00 235.00 565.50 209.00 522.50 b 183.00 479.50 170.00 419.67 170.00 343.00 l 170.00 343.00 b 170.00 267.67 183.17 208.33 209.50 165.00 b 235.83 121.67 271.33 100.00 316.00 100.00 z "},"1":{"ha":399,"x_min":18,"x_max":313,"o":"m 313.00 0.00 l 197.00 0.00 l 197.00 548.00 l 73.00 455.00 l 18.00 541.00 l 219.00 687.00 l 313.00 687.00 l 313.00 0.00 z "},"2":{"ha":532,"x_min":39,"x_max":483,"o":"m 483.00 0.00 l 42.00 0.00 l 40.00 77.00 l 261.00 310.00 b 293.67 344.67 318.00 374.50 334.00 399.50 b 350.00 424.50 358.00 450.67 358.00 478.00 l 358.00 478.00 b 358.00 508.67 348.17 534.17 328.50 554.50 b 308.83 574.83 283.67 585.00 253.00 585.00 l 253.00 585.00 b 196.33 585.00 152.67 558.00 122.00 504.00 l 122.00 504.00 l 39.00 563.00 b 85.00 649.67 159.00 693.00 261.00 693.00 l 261.00 693.00 b 320.33 693.00 371.00 674.50 413.00 637.50 b 455.00 600.50 476.00 551.67 476.00 491.00 l 476.00 491.00 b 476.00 451.67 467.50 414.17 450.50 378.50 b 433.50 342.83 404.00 303.33 362.00 260.00 l 362.00 260.00 l 217.00 109.00 l 218.00 106.00 l 483.00 106.00 l 483.00 0.00 z "},"3":{"ha":550,"x_min":28,"x_max":498,"o":"m 270.00 -8.00 l 270.00 -8.00 b 212.00 -8.00 161.50 5.50 118.50 32.50 b 75.50 59.50 45.33 94.67 28.00 138.00 l 28.00 138.00 l 128.00 182.00 b 150.67 127.33 195.33 100.00 262.00 100.00 l 262.00 100.00 b 295.33 100.00 323.33 109.50 346.00 128.50 b 368.67 147.50 380.00 172.00 380.00 202.00 l 380.00 202.00 b 380.00 230.67 368.67 255.00 346.00 275.00 b 323.33 295.00 291.67 305.00 251.00 305.00 l 251.00 305.00 l 199.00 305.00 l 199.00 403.00 l 262.00 403.00 b 296.00 403.00 321.17 411.67 337.50 429.00 b 353.83 446.33 362.00 468.00 362.00 494.00 l 362.00 494.00 b 362.00 521.33 352.00 543.67 332.00 561.00 b 312.00 578.33 287.67 587.00 259.00 587.00 l 259.00 587.00 b 209.00 587.00 171.33 567.00 146.00 527.00 l 146.00 527.00 l 53.00 577.00 b 70.33 612.33 97.33 640.67 134.00 662.00 b 170.67 683.33 213.33 694.00 262.00 694.00 l 262.00 694.00 b 324.00 694.00 375.67 677.67 417.00 645.00 b 458.33 612.33 479.00 568.00 479.00 512.00 l 479.00 512.00 b 479.00 478.67 471.00 448.50 455.00 421.50 b 439.00 394.50 416.67 373.33 388.00 358.00 l 388.00 358.00 l 388.00 355.00 b 422.00 339.67 448.83 317.33 468.50 288.00 b 488.17 258.67 498.00 224.67 498.00 186.00 l 498.00 186.00 b 498.00 128.00 476.50 81.17 433.50 45.50 b 390.50 9.83 336.00 -8.00 270.00 -8.00 z "},"4":{"ha":578,"x_min":32,"x_max":543,"o":"m 448.00 0.00 l 332.00 0.00 l 332.00 116.00 l 32.00 116.00 l 32.00 195.00 l 351.00 687.00 l 448.00 687.00 l 448.00 219.00 l 543.00 219.00 l 543.00 116.00 l 448.00 116.00 l 448.00 0.00 z m 336.00 491.00 l 167.00 216.00 l 336.00 216.00 l 336.00 491.00 z "},"5":{"ha":564,"x_min":36,"x_max":513,"o":"m 296.00 441.00 l 296.00 441.00 b 357.33 441.00 408.83 421.00 450.50 381.00 b 492.17 341.00 513.00 287.33 513.00 220.00 l 513.00 220.00 b 513.00 152.00 490.67 97.00 446.00 55.00 b 401.33 13.00 342.67 -8.00 270.00 -8.00 l 270.00 -8.00 b 222.67 -8.00 178.50 1.67 137.50 21.00 b 96.50 40.33 62.67 67.67 36.00 103.00 l 36.00 103.00 l 120.00 170.00 b 152.67 122.67 199.33 99.00 260.00 99.00 l 260.00 99.00 b 301.33 99.00 334.17 110.50 358.50 133.50 b 382.83 156.50 395.00 186.00 395.00 222.00 l 395.00 222.00 b 395.00 258.67 381.67 287.67 355.00 309.00 b 328.33 330.33 297.33 341.00 262.00 341.00 l 262.00 341.00 b 216.67 341.00 179.33 329.00 150.00 305.00 l 150.00 305.00 l 87.00 327.00 l 107.00 687.00 l 479.00 687.00 l 479.00 580.00 l 216.00 580.00 l 207.00 426.00 b 239.00 436.00 268.67 441.00 296.00 441.00 z "},"6":{"ha":590,"x_min":51,"x_max":541,"o":"m 328.00 438.00 l 328.00 438.00 b 390.00 438.00 441.00 418.17 481.00 378.50 b 521.00 338.83 541.00 285.00 541.00 217.00 l 541.00 217.00 b 541.00 151.67 517.50 97.83 470.50 55.50 b 423.50 13.17 365.33 -8.00 296.00 -8.00 l 296.00 -8.00 b 226.00 -8.00 167.67 17.50 121.00 68.50 b 74.33 119.50 51.00 186.33 51.00 269.00 l 51.00 269.00 b 51.00 381.00 84.67 477.50 152.00 558.50 b 219.33 639.50 304.67 689.33 408.00 708.00 l 408.00 708.00 l 445.00 611.00 b 311.67 573.67 226.33 504.67 189.00 404.00 l 189.00 404.00 l 191.00 402.00 b 230.33 426.00 276.00 438.00 328.00 438.00 z m 304.00 100.00 l 304.00 100.00 b 339.33 100.00 368.33 111.67 391.00 135.00 b 413.67 158.33 425.00 186.33 425.00 219.00 l 425.00 219.00 b 425.00 252.33 413.33 279.67 390.00 301.00 b 366.67 322.33 336.33 333.00 299.00 333.00 l 299.00 333.00 b 245.00 333.00 200.00 310.00 164.00 264.00 l 164.00 264.00 l 164.00 255.00 b 164.00 209.67 177.67 172.50 205.00 143.50 b 232.33 114.50 265.33 100.00 304.00 100.00 z "},"7":{"ha":494,"x_min":23,"x_max":450,"o":"m 23.00 581.00 l 23.00 687.00 l 450.00 687.00 l 450.00 610.00 l 198.00 -14.00 l 81.00 8.00 l 320.00 581.00 l 23.00 581.00 z "},"8":{"ha":576,"x_min":43,"x_max":535,"o":"m 288.00 -7.00 l 288.00 -7.00 b 216.67 -7.00 158.00 11.17 112.00 47.50 b 66.00 83.83 43.00 131.00 43.00 189.00 l 43.00 189.00 b 43.00 233.67 54.00 271.67 76.00 303.00 b 98.00 334.33 126.33 357.00 161.00 371.00 l 161.00 371.00 l 161.00 373.00 b 138.33 383.67 118.67 402.17 102.00 428.50 b 85.33 454.83 77.00 484.33 77.00 517.00 l 77.00 517.00 b 77.00 572.33 96.67 615.67 136.00 647.00 b 175.33 678.33 226.00 694.00 288.00 694.00 l 288.00 694.00 b 351.33 694.00 402.67 678.00 442.00 646.00 b 481.33 614.00 501.00 571.00 501.00 517.00 l 501.00 517.00 b 501.00 483.67 492.33 453.67 475.00 427.00 b 457.67 400.33 438.00 382.33 416.00 373.00 l 416.00 373.00 l 416.00 371.00 b 450.67 357.67 479.17 335.17 501.50 303.50 b 523.83 271.83 535.00 233.67 535.00 189.00 l 535.00 189.00 b 535.00 129.67 511.50 82.17 464.50 46.50 b 417.50 10.83 358.67 -7.00 288.00 -7.00 z m 215.00 444.50 b 233.67 428.83 258.00 421.00 288.00 421.00 b 318.00 421.00 342.50 428.83 361.50 444.50 b 380.50 460.17 390.00 480.67 390.00 506.00 l 390.00 506.00 b 390.00 530.67 380.33 551.17 361.00 567.50 b 341.67 583.83 317.33 592.00 288.00 592.00 b 258.67 592.00 234.50 583.50 215.50 566.50 b 196.50 549.50 187.00 529.33 187.00 506.00 l 187.00 506.00 b 187.00 480.67 196.33 460.17 215.00 444.50 z m 288.00 96.00 l 288.00 96.00 b 325.33 96.00 356.00 106.67 380.00 128.00 b 404.00 149.33 416.00 174.67 416.00 204.00 l 416.00 204.00 b 416.00 236.67 404.17 263.33 380.50 284.00 b 356.83 304.67 326.00 315.00 288.00 315.00 b 250.00 315.00 219.33 304.67 196.00 284.00 b 172.67 263.33 161.00 236.67 161.00 204.00 l 161.00 204.00 b 161.00 173.33 173.33 147.67 198.00 127.00 b 222.67 106.33 252.67 96.00 288.00 96.00 z "},"9":{"ha":584,"x_min":44,"x_max":534,"o":"m 289.00 694.00 l 289.00 694.00 b 358.33 694.00 416.50 668.83 463.50 618.50 b 510.50 568.17 534.00 503.00 534.00 423.00 l 534.00 423.00 b 534.00 307.00 499.67 208.33 431.00 127.00 b 362.33 45.67 276.00 -4.67 172.00 -24.00 l 172.00 -24.00 l 135.00 73.00 b 270.33 110.33 357.33 180.33 396.00 283.00 l 396.00 283.00 l 395.00 284.00 b 355.00 260.00 309.00 248.00 257.00 248.00 l 257.00 248.00 b 195.67 248.00 144.83 267.83 104.50 307.50 b 64.17 347.17 44.00 401.00 44.00 469.00 l 44.00 469.00 b 44.00 534.33 67.33 588.17 114.00 630.50 b 160.67 672.83 219.00 694.00 289.00 694.00 z m 161.00 468.00 l 161.00 468.00 b 161.00 434.00 172.33 406.50 195.00 385.50 b 217.67 364.50 248.00 354.00 286.00 354.00 l 286.00 354.00 b 338.00 354.00 383.00 376.67 421.00 422.00 l 421.00 422.00 l 421.00 432.00 b 421.00 478.00 408.83 515.33 384.50 544.00 b 360.17 572.67 329.00 587.00 291.00 587.00 l 291.00 587.00 b 252.33 587.00 221.00 575.33 197.00 552.00 b 173.00 528.67 161.00 500.67 161.00 468.00 z "},"A":{"ha":695,"x_min":23,"x_max":672,"o":"m 149.00 0.00 l 23.00 0.00 l 288.00 710.00 l 406.00 710.00 l 672.00 0.00 l 546.00 0.00 l 492.00 153.00 l 202.00 153.00 l 149.00 0.00 z m 346.00 565.00 l 239.00 257.00 l 456.00 257.00 l 348.00 565.00 l 346.00 565.00 z "},"B":{"ha":648,"x_min":87,"x_max":601,"o":"m 368.00 0.00 l 87.00 0.00 l 87.00 710.00 l 334.00 710.00 b 408.00 710.00 465.00 695.50 505.00 666.50 b 545.00 637.50 565.00 594.33 565.00 537.00 l 565.00 537.00 b 565.00 501.67 556.17 469.50 538.50 440.50 b 520.83 411.50 494.67 390.00 460.00 376.00 l 460.00 376.00 l 460.00 375.00 b 502.67 364.33 536.83 343.50 562.50 312.50 b 588.17 281.50 601.00 242.33 601.00 195.00 l 601.00 195.00 b 601.00 136.33 581.17 89.17 541.50 53.50 b 501.83 17.83 444.00 0.00 368.00 0.00 l 368.00 0.00 z m 208.00 602.00 l 208.00 416.00 l 325.00 416.00 b 403.00 416.00 442.00 447.33 442.00 510.00 l 442.00 510.00 b 442.00 538.67 431.83 561.33 411.50 578.00 b 391.17 594.67 361.00 603.00 321.00 603.00 l 321.00 603.00 l 208.00 602.00 z m 208.00 312.00 l 208.00 108.00 l 353.00 108.00 b 391.67 108.00 421.67 116.50 443.00 133.50 b 464.33 150.50 475.00 175.33 475.00 208.00 l 475.00 208.00 b 475.00 240.00 463.00 265.33 439.00 284.00 b 415.00 302.67 380.00 312.00 334.00 312.00 l 334.00 312.00 l 208.00 312.00 z "},"C":{"ha":729,"x_min":55,"x_max":693,"o":"m 413.00 -6.00 l 413.00 -6.00 b 311.67 -6.00 226.67 25.83 158.00 89.50 b 89.33 153.17 55.00 241.00 55.00 353.00 l 55.00 353.00 b 55.00 457.67 86.67 544.67 150.00 614.00 b 213.33 683.33 300.33 718.00 411.00 718.00 l 411.00 718.00 b 523.67 718.00 617.00 672.67 691.00 582.00 l 691.00 582.00 l 602.00 507.00 b 549.33 571.67 485.67 604.00 411.00 604.00 l 411.00 604.00 b 343.00 604.00 287.67 580.83 245.00 534.50 b 202.33 488.17 181.00 427.67 181.00 353.00 l 181.00 353.00 b 181.00 280.33 202.67 221.17 246.00 175.50 b 289.33 129.83 345.00 107.00 413.00 107.00 l 413.00 107.00 b 488.33 107.00 552.00 139.33 604.00 204.00 l 604.00 204.00 l 693.00 128.00 b 621.00 38.67 527.67 -6.00 413.00 -6.00 z "},"D":{"ha":736,"x_min":87,"x_max":682,"o":"m 316.00 0.00 l 87.00 0.00 l 87.00 710.00 l 313.00 710.00 b 424.33 710.00 513.67 677.17 581.00 611.50 b 648.33 545.83 682.00 460.00 682.00 354.00 b 682.00 248.00 649.17 162.50 583.50 97.50 b 517.83 32.50 428.67 0.00 316.00 0.00 l 316.00 0.00 z m 208.00 602.00 l 208.00 108.00 l 309.00 108.00 b 383.00 108.00 442.83 131.17 488.50 177.50 b 534.17 223.83 557.00 282.67 557.00 354.00 l 557.00 354.00 b 557.00 426.00 534.50 485.33 489.50 532.00 b 444.50 578.67 386.33 602.00 315.00 602.00 l 315.00 602.00 l 208.00 602.00 z "},"E":{"ha":607,"x_min":87,"x_max":555,"o":"m 555.00 0.00 l 87.00 0.00 l 87.00 710.00 l 534.00 710.00 l 534.00 602.00 l 208.00 602.00 l 208.00 406.00 l 471.00 406.00 l 471.00 298.00 l 208.00 298.00 l 208.00 108.00 l 555.00 108.00 l 555.00 0.00 z "},"F":{"ha":595,"x_min":87,"x_max":551,"o":"m 208.00 0.00 l 87.00 0.00 l 87.00 710.00 l 551.00 710.00 l 551.00 602.00 l 208.00 602.00 l 208.00 390.00 l 496.00 390.00 l 496.00 281.00 l 208.00 281.00 l 208.00 0.00 z "},"G":{"ha":759,"x_min":55,"x_max":691,"o":"m 413.00 -6.00 l 413.00 -6.00 b 308.33 -6.00 222.50 26.50 155.50 91.50 b 88.50 156.50 55.00 244.00 55.00 354.00 l 55.00 354.00 b 55.00 460.67 87.17 548.00 151.50 616.00 b 215.83 684.00 301.67 718.00 409.00 718.00 l 409.00 718.00 b 460.33 718.00 510.33 708.17 559.00 688.50 b 607.67 668.83 650.00 639.67 686.00 601.00 l 686.00 601.00 l 601.00 527.00 b 548.33 578.33 484.00 604.00 408.00 604.00 l 408.00 604.00 b 342.67 604.00 288.50 581.17 245.50 535.50 b 202.50 489.83 181.00 429.33 181.00 354.00 l 181.00 354.00 b 181.00 282.00 202.17 222.33 244.50 175.00 b 286.83 127.67 343.00 104.00 413.00 104.00 l 413.00 104.00 b 471.00 104.00 523.67 119.67 571.00 151.00 l 571.00 151.00 l 571.00 271.00 l 397.00 271.00 l 397.00 379.00 l 691.00 379.00 l 691.00 83.00 b 658.33 55.67 617.33 34.00 568.00 18.00 b 518.67 2.00 467.00 -6.00 413.00 -6.00 z "},"H":{"ha":736,"x_min":87,"x_max":649,"o":"m 208.00 0.00 l 87.00 0.00 l 87.00 710.00 l 208.00 710.00 l 208.00 393.00 l 528.00 393.00 l 528.00 710.00 l 649.00 710.00 l 649.00 0.00 l 528.00 0.00 l 528.00 285.00 l 208.00 285.00 l 208.00 0.00 z "},"I":{"ha":304,"x_min":91,"x_max":212,"o":"m 212.00 0.00 l 91.00 0.00 l 91.00 710.00 l 212.00 710.00 l 212.00 0.00 z "},"J":{"ha":507,"x_min":31,"x_max":431,"o":"m 219.00 -6.00 l 219.00 -6.00 b 183.67 -6.00 149.00 1.67 115.00 17.00 b 81.00 32.33 53.00 54.33 31.00 83.00 l 31.00 83.00 l 99.00 171.00 b 113.67 153.67 131.33 138.83 152.00 126.50 b 172.67 114.17 193.33 108.00 214.00 108.00 l 214.00 108.00 b 278.00 108.00 310.00 153.33 310.00 244.00 l 310.00 244.00 l 310.00 710.00 l 431.00 710.00 l 431.00 243.00 b 431.00 161.67 414.33 99.83 381.00 57.50 b 347.67 15.17 293.67 -6.00 219.00 -6.00 z "},"K":{"ha":664,"x_min":87,"x_max":644,"o":"m 208.00 0.00 l 87.00 0.00 l 87.00 710.00 l 208.00 710.00 l 208.00 370.00 l 210.00 370.00 l 482.00 710.00 l 636.00 710.00 l 369.00 393.00 l 644.00 0.00 l 494.00 0.00 l 289.00 297.00 l 208.00 201.00 l 208.00 0.00 z "},"L":{"ha":573,"x_min":87,"x_max":537,"o":"m 537.00 0.00 l 87.00 0.00 l 87.00 710.00 l 208.00 710.00 l 208.00 108.00 l 537.00 108.00 l 537.00 0.00 z "},"M":{"ha":887,"x_min":88,"x_max":800,"o":"m 209.00 0.00 l 88.00 0.00 l 88.00 710.00 l 209.00 710.00 l 443.00 285.00 l 445.00 285.00 l 679.00 710.00 l 800.00 710.00 l 800.00 0.00 l 679.00 0.00 l 679.00 475.00 l 677.00 475.00 l 483.00 137.00 l 404.00 137.00 l 210.00 475.00 l 209.00 475.00 l 209.00 0.00 z "},"N":{"ha":763,"x_min":87,"x_max":676,"o":"m 208.00 0.00 l 87.00 0.00 l 87.00 710.00 l 207.00 710.00 l 554.00 200.00 l 556.00 200.00 l 556.00 710.00 l 676.00 710.00 l 676.00 0.00 l 553.00 0.00 l 210.00 501.00 l 208.00 501.00 l 208.00 0.00 z "},"O":{"ha":827,"x_min":55,"x_max":772,"o":"m 414.00 -8.00 l 414.00 -8.00 b 308.00 -8.00 221.67 26.17 155.00 94.50 b 88.33 162.83 55.00 249.67 55.00 355.00 b 55.00 460.33 88.33 547.17 155.00 615.50 b 221.67 683.83 308.00 718.00 414.00 718.00 l 414.00 718.00 b 517.33 718.00 602.83 684.33 670.50 617.00 b 738.17 549.67 772.00 462.33 772.00 355.00 b 772.00 247.67 738.17 160.33 670.50 93.00 b 602.83 25.67 517.33 -8.00 414.00 -8.00 z m 414.00 105.00 l 414.00 105.00 b 480.00 105.00 535.17 128.67 579.50 176.00 b 623.83 223.33 646.00 283.00 646.00 355.00 l 646.00 355.00 b 646.00 427.67 623.83 487.50 579.50 534.50 b 535.17 581.50 480.00 605.00 414.00 605.00 l 414.00 605.00 b 345.33 605.00 289.17 581.00 245.50 533.00 b 201.83 485.00 180.00 425.67 180.00 355.00 b 180.00 284.33 201.83 225.00 245.50 177.00 b 289.17 129.00 345.33 105.00 414.00 105.00 z "},"P":{"ha":629,"x_min":87,"x_max":587,"o":"m 208.00 0.00 l 87.00 0.00 l 87.00 710.00 l 344.00 710.00 b 425.33 710.00 486.17 689.17 526.50 647.50 b 566.83 605.83 587.00 550.00 587.00 480.00 l 587.00 480.00 b 587.00 405.33 564.00 348.83 518.00 310.50 b 472.00 272.17 409.33 253.00 330.00 253.00 l 330.00 253.00 l 208.00 253.00 l 208.00 0.00 z m 208.00 602.00 l 208.00 362.00 l 318.00 362.00 b 366.00 362.00 402.00 372.83 426.00 394.50 b 450.00 416.17 462.00 445.33 462.00 482.00 l 462.00 482.00 b 462.00 520.00 450.33 549.50 427.00 570.50 b 403.67 591.50 370.33 602.00 327.00 602.00 l 327.00 602.00 l 208.00 602.00 z "},"Q":{"ha":848,"x_min":55,"x_max":792,"o":"m 709.00 139.00 l 792.00 65.00 l 724.00 -21.00 l 634.00 61.00 b 571.33 15.00 498.00 -8.00 414.00 -8.00 l 414.00 -8.00 b 308.00 -8.00 221.67 26.17 155.00 94.50 b 88.33 162.83 55.00 249.67 55.00 355.00 b 55.00 460.33 88.33 547.17 155.00 615.50 b 221.67 683.83 308.00 718.00 414.00 718.00 l 414.00 718.00 b 517.33 718.00 602.83 684.33 670.50 617.00 b 738.17 549.67 772.00 462.33 772.00 355.00 l 772.00 355.00 b 772.00 273.00 751.00 201.00 709.00 139.00 l 709.00 139.00 z m 247.00 534.50 b 202.33 487.50 180.00 427.67 180.00 355.00 b 180.00 282.33 202.33 222.50 247.00 175.50 b 291.67 128.50 347.33 105.00 414.00 105.00 l 414.00 105.00 b 462.00 105.00 505.33 118.33 544.00 145.00 l 544.00 145.00 l 473.00 210.00 l 540.00 290.00 l 614.00 224.00 b 635.33 262.67 646.00 306.33 646.00 355.00 l 646.00 355.00 b 646.00 425.67 624.50 485.00 581.50 533.00 b 538.50 581.00 482.67 605.00 414.00 605.00 l 414.00 605.00 b 347.33 605.00 291.67 581.50 247.00 534.50 z "},"R":{"ha":659,"x_min":87,"x_max":618,"o":"m 208.00 0.00 l 87.00 0.00 l 87.00 710.00 l 349.00 710.00 b 430.33 710.00 491.17 689.00 531.50 647.00 b 571.83 605.00 592.00 549.33 592.00 480.00 l 592.00 480.00 b 592.00 367.33 539.33 295.67 434.00 265.00 l 434.00 265.00 l 618.00 0.00 l 473.00 0.00 l 303.00 253.00 l 208.00 253.00 l 208.00 0.00 z m 208.00 602.00 l 208.00 362.00 l 323.00 362.00 b 369.67 362.00 405.33 372.83 430.00 394.50 b 454.67 416.17 467.00 445.33 467.00 482.00 l 467.00 482.00 b 467.00 520.00 455.17 549.50 431.50 570.50 b 407.83 591.50 374.33 602.00 331.00 602.00 l 331.00 602.00 l 208.00 602.00 z "},"S":{"ha":591,"x_min":42,"x_max":544,"o":"m 299.00 -8.00 l 299.00 -8.00 b 199.67 -8.00 114.00 29.33 42.00 104.00 l 42.00 104.00 l 118.00 197.00 b 142.67 167.00 171.33 144.00 204.00 128.00 b 236.67 112.00 268.67 104.00 300.00 104.00 l 300.00 104.00 b 338.00 104.00 367.17 111.67 387.50 127.00 b 407.83 142.33 418.00 163.33 418.00 190.00 l 418.00 190.00 b 418.00 218.67 408.00 240.33 388.00 255.00 b 368.00 269.67 332.33 286.00 281.00 304.00 l 281.00 304.00 b 248.33 315.33 221.50 326.17 200.50 336.50 b 179.50 346.83 157.50 360.33 134.50 377.00 b 111.50 393.67 94.33 413.83 83.00 437.50 b 71.67 461.17 66.00 488.67 66.00 520.00 l 66.00 520.00 b 66.00 575.33 88.00 622.17 132.00 660.50 b 176.00 698.83 229.00 718.00 291.00 718.00 l 291.00 718.00 b 374.33 718.00 452.67 689.00 526.00 631.00 l 526.00 631.00 l 454.00 536.00 b 395.33 584.67 341.00 609.00 291.00 609.00 l 291.00 609.00 b 262.33 609.00 238.67 601.67 220.00 587.00 b 201.33 572.33 191.67 552.00 191.00 526.00 l 191.00 526.00 b 191.00 513.33 193.33 502.50 198.00 493.50 b 202.67 484.50 212.17 475.67 226.50 467.00 b 240.83 458.33 253.83 451.50 265.50 446.50 b 277.17 441.50 296.67 433.67 324.00 423.00 l 324.00 423.00 b 397.33 394.33 445.67 372.00 469.00 356.00 l 469.00 356.00 b 519.00 320.67 544.00 270.33 544.00 205.00 l 544.00 205.00 b 544.00 137.00 519.17 84.50 469.50 47.50 b 419.83 10.50 363.00 -8.00 299.00 -8.00 z "},"T":{"ha":589,"x_min":32,"x_max":558,"o":"m 354.00 0.00 l 233.00 0.00 l 233.00 602.00 l 32.00 602.00 l 32.00 710.00 l 558.00 710.00 l 558.00 602.00 l 354.00 602.00 l 354.00 0.00 z "},"U":{"ha":719,"x_min":77,"x_max":643,"o":"m 359.00 -8.00 l 359.00 -8.00 b 273.67 -8.00 205.33 18.50 154.00 71.50 b 102.67 124.50 77.00 198.00 77.00 292.00 l 77.00 292.00 l 77.00 710.00 l 197.00 710.00 l 197.00 301.00 b 197.00 243.00 211.50 196.00 240.50 160.00 b 269.50 124.00 309.00 106.00 359.00 106.00 l 359.00 106.00 b 407.67 106.00 447.00 123.50 477.00 158.50 b 507.00 193.50 522.00 241.00 522.00 301.00 l 522.00 301.00 l 522.00 710.00 l 643.00 710.00 l 643.00 292.00 b 643.00 199.33 617.67 126.17 567.00 72.50 b 516.33 18.83 447.00 -8.00 359.00 -8.00 z "},"V":{"ha":691,"x_min":30,"x_max":667,"o":"m 402.00 0.00 l 295.00 0.00 l 30.00 710.00 l 160.00 710.00 l 349.00 174.00 l 350.00 174.00 l 538.00 710.00 l 667.00 710.00 l 402.00 0.00 z "},"W":{"ha":1035,"x_min":32,"x_max":1003,"o":"m 370.00 0.00 l 257.00 0.00 l 32.00 710.00 l 161.00 710.00 l 313.00 198.00 l 315.00 198.00 l 454.00 710.00 l 582.00 710.00 l 720.00 199.00 l 722.00 199.00 l 875.00 710.00 l 1003.00 710.00 l 778.00 0.00 l 665.00 0.00 l 520.00 534.00 l 518.00 534.00 l 370.00 0.00 z "},"X":{"ha":694,"x_min":32,"x_max":663,"o":"m 172.00 0.00 l 32.00 0.00 l 267.00 356.00 l 37.00 710.00 l 178.00 710.00 l 348.00 448.00 l 349.00 448.00 l 519.00 710.00 l 657.00 710.00 l 427.00 356.00 l 663.00 0.00 l 521.00 0.00 l 347.00 262.00 l 345.00 262.00 l 172.00 0.00 z "},"Y":{"ha":625,"x_min":14,"x_max":611,"o":"m 372.00 0.00 l 251.00 0.00 l 251.00 314.00 l 14.00 710.00 l 152.00 710.00 l 311.00 435.00 l 313.00 435.00 l 471.00 710.00 l 611.00 710.00 l 372.00 314.00 l 372.00 0.00 z "},"Z":{"ha":626,"x_min":57,"x_max":567,"o":"m 567.00 0.00 l 57.00 0.00 l 57.00 95.00 l 406.00 600.00 l 405.00 602.00 l 73.00 602.00 l 73.00 710.00 l 565.00 710.00 l 565.00 617.00 l 210.00 111.00 l 212.00 108.00 l 567.00 108.00 l 567.00 0.00 z "},"a":{"ha":611,"x_min":43,"x_max":543,"o":"m 279.00 -8.00 l 279.00 -8.00 b 210.33 -8.00 153.83 15.00 109.50 61.00 b 65.17 107.00 43.00 167.33 43.00 242.00 l 43.00 242.00 b 43.00 315.33 65.33 375.83 110.00 423.50 b 154.67 471.17 210.67 495.00 278.00 495.00 l 278.00 495.00 b 343.33 495.00 393.67 472.67 429.00 428.00 l 429.00 428.00 l 431.00 429.00 l 431.00 488.00 l 543.00 488.00 l 543.00 0.00 l 436.00 0.00 l 436.00 64.00 l 434.00 65.00 b 398.00 16.33 346.33 -8.00 279.00 -8.00 z m 297.00 94.00 l 297.00 94.00 b 335.67 94.00 368.50 107.67 395.50 135.00 b 422.50 162.33 436.00 197.67 436.00 241.00 b 436.00 284.33 422.83 320.67 396.50 350.00 b 370.17 379.33 337.00 394.00 297.00 394.00 b 257.00 394.00 223.67 380.00 197.00 352.00 b 170.33 324.00 157.00 287.00 157.00 241.00 l 157.00 241.00 b 157.00 197.67 170.00 162.33 196.00 135.00 b 222.00 107.67 255.67 94.00 297.00 94.00 z "},"b":{"ha":621,"x_min":73,"x_max":577,"o":"m 340.00 -8.00 l 340.00 -8.00 b 272.00 -8.00 219.33 16.33 182.00 65.00 l 182.00 65.00 l 180.00 65.00 l 180.00 0.00 l 73.00 0.00 l 73.00 736.00 l 185.00 736.00 l 185.00 430.00 l 186.00 430.00 b 224.00 473.33 275.67 495.00 341.00 495.00 l 341.00 495.00 b 409.00 495.00 465.33 471.17 510.00 423.50 b 554.67 375.83 577.00 315.33 577.00 242.00 l 577.00 242.00 b 577.00 167.33 554.67 107.00 510.00 61.00 b 465.33 15.00 408.67 -8.00 340.00 -8.00 z m 221.00 135.00 b 248.33 107.67 282.33 94.00 323.00 94.00 b 363.67 94.00 397.17 107.67 423.50 135.00 b 449.83 162.33 463.00 197.67 463.00 241.00 l 463.00 241.00 b 463.00 287.00 449.50 324.00 422.50 352.00 b 395.50 380.00 362.00 394.00 322.00 394.00 l 322.00 394.00 b 280.67 394.00 246.67 379.50 220.00 350.50 b 193.33 321.50 180.00 285.00 180.00 241.00 l 180.00 241.00 b 180.00 197.67 193.67 162.33 221.00 135.00 z "},"c":{"ha":532,"x_min":44,"x_max":503,"o":"m 293.00 -8.00 l 293.00 -8.00 b 220.33 -8.00 160.67 15.33 114.00 62.00 b 67.33 108.67 44.00 169.00 44.00 243.00 l 44.00 243.00 b 44.00 317.67 67.67 378.33 115.00 425.00 b 162.33 471.67 223.00 495.00 297.00 495.00 l 297.00 495.00 b 336.33 495.00 374.33 487.17 411.00 471.50 b 447.67 455.83 478.00 433.33 502.00 404.00 l 502.00 404.00 l 426.00 338.00 b 394.00 375.33 353.00 394.00 303.00 394.00 l 303.00 394.00 b 259.67 394.00 224.67 380.17 198.00 352.50 b 171.33 324.83 158.00 288.67 158.00 244.00 b 158.00 199.33 171.33 163.17 198.00 135.50 b 224.67 107.83 259.67 94.00 303.00 94.00 l 303.00 94.00 b 356.33 94.00 397.33 113.00 426.00 151.00 l 426.00 151.00 l 503.00 83.00 b 456.33 22.33 386.33 -8.00 293.00 -8.00 z "},"d":{"ha":620,"x_min":43,"x_max":547,"o":"m 280.00 -8.00 l 280.00 -8.00 b 211.33 -8.00 154.67 15.00 110.00 61.00 b 65.33 107.00 43.00 167.33 43.00 242.00 l 43.00 242.00 b 43.00 315.33 65.50 375.83 110.50 423.50 b 155.50 471.17 211.67 495.00 279.00 495.00 l 279.00 495.00 b 345.67 495.00 397.67 472.67 435.00 428.00 l 435.00 428.00 l 436.00 428.00 l 436.00 736.00 l 547.00 736.00 l 547.00 0.00 l 440.00 0.00 l 440.00 66.00 l 439.00 66.00 b 401.00 16.67 348.00 -8.00 280.00 -8.00 z m 196.50 135.00 b 222.83 107.67 256.33 94.00 297.00 94.00 b 337.67 94.00 371.67 107.67 399.00 135.00 b 426.33 162.33 440.00 197.67 440.00 241.00 l 440.00 241.00 b 440.00 285.00 426.67 321.50 400.00 350.50 b 373.33 379.50 339.33 394.00 298.00 394.00 l 298.00 394.00 b 258.00 394.00 224.50 380.00 197.50 352.00 b 170.50 324.00 157.00 287.00 157.00 241.00 l 157.00 241.00 b 157.00 197.67 170.17 162.33 196.50 135.00 z "},"e":{"ha":562,"x_min":44,"x_max":519,"o":"m 519.00 250.00 l 519.00 250.00 b 519.00 237.33 518.00 223.00 516.00 207.00 l 516.00 207.00 l 160.00 207.00 b 167.33 171.67 183.50 144.00 208.50 124.00 b 233.50 104.00 265.00 94.00 303.00 94.00 l 303.00 94.00 b 354.33 94.00 395.33 113.00 426.00 151.00 l 426.00 151.00 l 504.00 84.00 b 456.67 22.67 387.67 -8.00 297.00 -8.00 l 297.00 -8.00 b 222.33 -8.00 161.50 15.00 114.50 61.00 b 67.50 107.00 44.00 168.00 44.00 244.00 l 44.00 244.00 b 44.00 318.67 66.83 379.17 112.50 425.50 b 158.17 471.83 217.00 495.00 289.00 495.00 l 289.00 495.00 b 357.00 495.00 412.33 472.00 455.00 426.00 b 497.67 380.00 519.00 321.33 519.00 250.00 z m 365.00 367.50 b 345.00 385.17 319.33 394.00 288.00 394.00 b 256.67 394.00 229.83 385.33 207.50 368.00 b 185.17 350.67 170.00 326.33 162.00 295.00 l 162.00 295.00 l 406.00 295.00 b 398.67 325.67 385.00 349.83 365.00 367.50 z "},"f":{"ha":343,"x_min":37,"x_max":361,"o":"m 203.00 0.00 l 91.00 0.00 l 91.00 393.00 l 37.00 393.00 l 37.00 488.00 l 91.00 488.00 l 91.00 577.00 b 91.00 631.67 103.67 673.17 129.00 701.50 b 154.33 729.83 191.00 744.00 239.00 744.00 l 239.00 744.00 b 285.67 744.00 326.33 732.67 361.00 710.00 l 361.00 710.00 l 336.00 616.00 b 300.67 632.67 273.67 641.00 255.00 641.00 l 255.00 641.00 b 220.33 641.00 203.00 615.67 203.00 565.00 l 203.00 565.00 l 203.00 488.00 l 323.00 488.00 l 323.00 393.00 l 203.00 393.00 l 203.00 0.00 z "},"g":{"ha":607,"x_min":42,"x_max":540,"o":"m 291.00 -205.00 l 291.00 -205.00 b 215.00 -205.00 148.67 -188.00 92.00 -154.00 l 92.00 -154.00 l 119.00 -56.00 b 150.33 -72.67 177.83 -84.83 201.50 -92.50 b 225.17 -100.17 253.00 -104.00 285.00 -104.00 l 285.00 -104.00 b 331.00 -104.00 366.67 -92.50 392.00 -69.50 b 417.33 -46.50 430.00 -18.00 430.00 16.00 l 430.00 16.00 l 430.00 67.00 l 428.00 67.00 b 388.67 27.67 339.33 8.00 280.00 8.00 l 280.00 8.00 b 211.33 8.00 154.50 30.33 109.50 75.00 b 64.50 119.67 42.00 177.67 42.00 249.00 b 42.00 320.33 63.83 379.17 107.50 425.50 b 151.17 471.83 206.67 495.00 274.00 495.00 l 274.00 495.00 b 334.00 495.00 384.67 475.33 426.00 436.00 l 426.00 436.00 l 428.00 436.00 l 428.00 488.00 l 540.00 488.00 l 540.00 50.00 b 540.00 -28.67 520.00 -90.83 480.00 -136.50 b 440.00 -182.17 377.00 -205.00 291.00 -205.00 z m 295.00 111.00 l 295.00 111.00 b 335.67 111.00 368.83 124.50 394.50 151.50 b 420.17 178.50 433.00 212.67 433.00 254.00 l 433.00 254.00 b 433.00 294.67 419.83 328.00 393.50 354.00 b 367.17 380.00 334.33 393.00 295.00 393.00 l 295.00 393.00 b 253.67 393.00 220.17 379.83 194.50 353.50 b 168.83 327.17 156.00 293.33 156.00 252.00 l 156.00 252.00 b 156.00 209.33 169.17 175.17 195.50 149.50 b 221.83 123.83 255.00 111.00 295.00 111.00 z "},"h":{"ha":598,"x_min":73,"x_max":534,"o":"m 185.00 0.00 l 73.00 0.00 l 73.00 736.00 l 185.00 736.00 l 185.00 427.00 l 186.00 427.00 b 227.33 472.33 282.67 495.00 352.00 495.00 l 352.00 495.00 b 408.67 495.00 453.17 478.67 485.50 446.00 b 517.83 413.33 534.00 362.00 534.00 292.00 l 534.00 292.00 l 534.00 0.00 l 422.00 0.00 l 422.00 263.00 b 422.00 309.67 413.17 343.17 395.50 363.50 b 377.83 383.83 351.33 394.00 316.00 394.00 l 316.00 394.00 b 274.67 394.00 242.50 381.50 219.50 356.50 b 196.50 331.50 185.00 295.33 185.00 248.00 l 185.00 248.00 l 185.00 0.00 z "},"i":{"ha":272,"x_min":61,"x_max":212,"o":"m 189.50 582.00 b 174.50 567.33 156.67 560.00 136.00 560.00 b 115.33 560.00 97.67 567.33 83.00 582.00 b 68.33 596.67 61.00 614.33 61.00 635.00 l 61.00 635.00 b 61.00 655.00 68.33 672.33 83.00 687.00 b 97.67 701.67 115.33 709.00 136.00 709.00 b 156.67 709.00 174.50 701.67 189.50 687.00 b 204.50 672.33 212.00 655.00 212.00 635.00 l 212.00 635.00 b 212.00 614.33 204.50 596.67 189.50 582.00 z m 192.00 0.00 l 80.00 0.00 l 80.00 488.00 l 192.00 488.00 l 192.00 0.00 z "},"j":{"ha":249,"x_min":-49,"x_max":201,"o":"m 178.50 582.00 b 163.50 567.33 145.67 560.00 125.00 560.00 b 104.33 560.00 86.67 567.33 72.00 582.00 b 57.33 596.67 50.00 614.33 50.00 635.00 l 50.00 635.00 b 50.00 655.00 57.33 672.33 72.00 687.00 b 86.67 701.67 104.33 709.00 125.00 709.00 b 145.67 709.00 163.50 701.67 178.50 687.00 b 193.50 672.33 201.00 655.00 201.00 635.00 l 201.00 635.00 b 201.00 614.33 193.50 596.67 178.50 582.00 z m 46.00 -206.00 l 46.00 -206.00 b 12.00 -206.00 -19.67 -200.00 -49.00 -188.00 l -49.00 -188.00 l -30.00 -91.00 b -15.33 -100.33 1.67 -105.00 21.00 -105.00 l 21.00 -105.00 b 53.67 -105.00 70.00 -81.00 70.00 -33.00 l 70.00 -33.00 l 70.00 488.00 l 182.00 488.00 l 182.00 -33.00 b 182.00 -87.67 169.33 -130.17 144.00 -160.50 b 118.67 -190.83 86.00 -206.00 46.00 -206.00 z "},"k":{"ha":535,"x_min":73,"x_max":521,"o":"m 185.00 0.00 l 73.00 0.00 l 73.00 736.00 l 185.00 736.00 l 185.00 263.00 l 187.00 262.00 l 385.00 488.00 l 518.00 488.00 l 342.00 292.00 l 521.00 0.00 l 395.00 0.00 l 264.00 215.00 l 185.00 129.00 l 185.00 0.00 z "},"l":{"ha":272,"x_min":80,"x_max":192,"o":"m 192.00 0.00 l 80.00 0.00 l 80.00 736.00 l 192.00 736.00 l 192.00 0.00 z "},"m":{"ha":897,"x_min":73,"x_max":832,"o":"m 185.00 0.00 l 73.00 0.00 l 73.00 488.00 l 185.00 488.00 l 185.00 421.00 l 186.00 421.00 b 227.33 470.33 278.00 495.00 338.00 495.00 l 338.00 495.00 b 406.67 495.00 455.33 468.00 484.00 414.00 l 484.00 414.00 l 486.00 414.00 b 528.00 468.00 586.33 495.00 661.00 495.00 l 661.00 495.00 b 715.67 495.00 757.83 477.33 787.50 442.00 b 817.17 406.67 832.00 353.33 832.00 282.00 l 832.00 282.00 l 832.00 0.00 l 720.00 0.00 l 720.00 254.00 b 720.00 347.33 688.33 394.00 625.00 394.00 l 625.00 394.00 b 592.33 394.00 565.17 380.50 543.50 353.50 b 521.83 326.50 511.00 289.67 511.00 243.00 l 511.00 243.00 l 511.00 0.00 l 399.00 0.00 l 399.00 254.00 b 399.00 347.33 366.67 394.00 302.00 394.00 l 302.00 394.00 b 267.33 394.00 239.17 380.50 217.50 353.50 b 195.83 326.50 185.00 289.67 185.00 243.00 l 185.00 243.00 l 185.00 0.00 z "},"n":{"ha":593,"x_min":73,"x_max":529,"o":"m 185.00 0.00 l 73.00 0.00 l 73.00 488.00 l 185.00 488.00 l 185.00 421.00 l 187.00 421.00 b 228.33 470.33 282.67 495.00 350.00 495.00 l 350.00 495.00 b 406.00 495.00 449.83 478.00 481.50 444.00 b 513.17 410.00 529.00 357.67 529.00 287.00 l 529.00 287.00 l 529.00 0.00 l 417.00 0.00 l 417.00 258.00 b 417.00 307.33 408.17 342.33 390.50 363.00 b 372.83 383.67 346.33 394.00 311.00 394.00 l 311.00 394.00 b 272.33 394.00 241.67 381.00 219.00 355.00 b 196.33 329.00 185.00 292.33 185.00 245.00 l 185.00 245.00 l 185.00 0.00 z "},"o":{"ha":600,"x_min":44,"x_max":556,"o":"m 300.00 -8.00 l 300.00 -8.00 b 224.00 -8.00 162.33 15.67 115.00 63.00 b 67.67 110.33 44.00 170.33 44.00 243.00 b 44.00 315.67 67.67 375.83 115.00 423.50 b 162.33 471.17 224.00 495.00 300.00 495.00 l 300.00 495.00 b 375.33 495.00 436.83 471.67 484.50 425.00 b 532.17 378.33 556.00 317.67 556.00 243.00 l 556.00 243.00 b 556.00 169.00 532.17 108.67 484.50 62.00 b 436.83 15.33 375.33 -8.00 300.00 -8.00 z m 300.00 94.00 l 300.00 94.00 b 340.00 94.00 373.67 108.00 401.00 136.00 b 428.33 164.00 442.00 199.67 442.00 243.00 l 442.00 243.00 b 442.00 287.67 428.50 324.00 401.50 352.00 b 374.50 380.00 340.67 394.00 300.00 394.00 l 300.00 394.00 b 258.00 394.00 223.83 379.67 197.50 351.00 b 171.17 322.33 158.00 286.33 158.00 243.00 l 158.00 243.00 b 158.00 201.00 171.33 165.67 198.00 137.00 b 224.67 108.33 258.67 94.00 300.00 94.00 z "},"p":{"ha":621,"x_min":73,"x_max":577,"o":"m 185.00 -198.00 l 73.00 -198.00 l 73.00 488.00 l 185.00 488.00 l 185.00 430.00 l 187.00 430.00 b 224.33 473.33 275.67 495.00 341.00 495.00 l 341.00 495.00 b 409.00 495.00 465.33 471.17 510.00 423.50 b 554.67 375.83 577.00 315.33 577.00 242.00 l 577.00 242.00 b 577.00 167.33 554.67 107.00 510.00 61.00 b 465.33 15.00 408.67 -8.00 340.00 -8.00 l 340.00 -8.00 b 275.33 -8.00 224.33 14.67 187.00 60.00 l 187.00 60.00 l 185.00 59.00 l 185.00 -198.00 z m 221.00 135.00 b 248.33 107.67 282.33 94.00 323.00 94.00 b 363.67 94.00 397.17 107.67 423.50 135.00 b 449.83 162.33 463.00 197.67 463.00 241.00 l 463.00 241.00 b 463.00 287.00 449.50 324.00 422.50 352.00 b 395.50 380.00 362.00 394.00 322.00 394.00 l 322.00 394.00 b 280.67 394.00 246.67 379.50 220.00 350.50 b 193.33 321.50 180.00 285.00 180.00 241.00 l 180.00 241.00 b 180.00 197.67 193.67 162.33 221.00 135.00 z "},"q":{"ha":616,"x_min":44,"x_max":548,"o":"m 548.00 -198.00 l 436.00 -198.00 l 436.00 60.00 l 435.00 60.00 b 397.67 14.67 346.00 -8.00 280.00 -8.00 l 280.00 -8.00 b 211.33 -8.00 154.83 15.00 110.50 61.00 b 66.17 107.00 44.00 167.33 44.00 242.00 l 44.00 242.00 b 44.00 315.33 66.33 375.83 111.00 423.50 b 155.67 471.17 211.67 495.00 279.00 495.00 l 279.00 495.00 b 345.67 495.00 397.67 472.67 435.00 428.00 l 435.00 428.00 l 436.00 428.00 l 436.00 488.00 l 548.00 488.00 l 548.00 -198.00 z m 298.00 94.00 l 298.00 94.00 b 338.00 94.00 371.67 107.67 399.00 135.00 b 426.33 162.33 440.00 197.67 440.00 241.00 l 440.00 241.00 b 440.00 285.00 426.67 321.50 400.00 350.50 b 373.33 379.50 339.33 394.00 298.00 394.00 l 298.00 394.00 b 258.00 394.00 224.67 380.00 198.00 352.00 b 171.33 324.00 158.00 287.00 158.00 241.00 l 158.00 241.00 b 158.00 197.67 171.00 162.33 197.00 135.00 b 223.00 107.67 256.67 94.00 298.00 94.00 z "},"r":{"ha":372,"x_min":73,"x_max":352,"o":"m 185.00 0.00 l 73.00 0.00 l 73.00 488.00 l 185.00 488.00 l 185.00 415.00 l 187.00 415.00 b 227.00 468.33 277.33 495.00 338.00 495.00 l 338.00 495.00 l 352.00 495.00 l 352.00 370.00 b 334.67 371.33 323.33 372.00 318.00 372.00 l 318.00 372.00 b 276.67 372.00 244.17 358.83 220.50 332.50 b 196.83 306.17 185.00 272.33 185.00 231.00 l 185.00 231.00 l 185.00 0.00 z "},"s":{"ha":449,"x_min":32,"x_max":411,"o":"m 229.00 -8.00 l 229.00 -8.00 b 151.00 -8.00 85.33 15.67 32.00 63.00 l 32.00 63.00 l 88.00 147.00 b 126.67 109.00 173.67 90.00 229.00 90.00 l 229.00 90.00 b 250.33 90.00 267.00 94.33 279.00 103.00 b 291.00 111.67 297.00 123.33 297.00 138.00 l 297.00 138.00 b 297.00 149.33 290.17 158.83 276.50 166.50 b 262.83 174.17 237.67 184.33 201.00 197.00 l 201.00 197.00 b 153.00 213.67 116.17 233.67 90.50 257.00 b 64.83 280.33 52.00 313.67 52.00 357.00 l 52.00 357.00 b 52.00 397.00 68.17 430.00 100.50 456.00 b 132.83 482.00 174.00 495.00 224.00 495.00 l 224.00 495.00 b 288.67 495.00 346.00 474.67 396.00 434.00 l 396.00 434.00 l 340.00 346.00 b 303.33 380.67 262.67 398.00 218.00 398.00 l 218.00 398.00 b 204.67 398.00 192.50 394.50 181.50 387.50 b 170.50 380.50 165.00 370.00 165.00 356.00 l 165.00 356.00 b 165.00 336.00 190.67 316.33 242.00 297.00 l 242.00 297.00 b 305.33 272.33 345.00 254.33 361.00 243.00 l 361.00 243.00 b 394.33 219.67 411.00 185.33 411.00 140.00 l 411.00 140.00 b 411.00 96.67 395.50 61.17 364.50 33.50 b 333.50 5.83 288.33 -8.00 229.00 -8.00 z "},"t":{"ha":365,"x_min":22,"x_max":342,"o":"m 218.00 -8.00 l 218.00 -8.00 b 175.33 -8.00 142.00 5.67 118.00 33.00 b 94.00 60.33 82.00 100.67 82.00 154.00 l 82.00 154.00 l 82.00 393.00 l 22.00 393.00 l 22.00 488.00 l 82.00 488.00 l 82.00 650.00 l 194.00 662.00 l 194.00 488.00 l 337.00 488.00 l 337.00 393.00 l 194.00 393.00 l 194.00 165.00 b 194.00 140.33 197.67 122.83 205.00 112.50 b 212.33 102.17 224.33 97.00 241.00 97.00 l 241.00 97.00 b 263.00 97.00 287.00 104.00 313.00 118.00 l 313.00 118.00 l 342.00 21.00 b 306.67 1.67 265.33 -8.00 218.00 -8.00 z "},"u":{"ha":578,"x_min":63,"x_max":509,"o":"m 246.00 -8.00 l 246.00 -8.00 b 124.00 -8.00 63.00 58.33 63.00 191.00 l 63.00 191.00 l 63.00 488.00 l 175.00 488.00 l 175.00 221.00 b 175.00 173.67 182.50 140.67 197.50 122.00 b 212.50 103.33 237.33 94.00 272.00 94.00 b 306.67 94.00 336.17 108.17 360.50 136.50 b 384.83 164.83 397.00 204.00 397.00 254.00 l 397.00 254.00 l 397.00 488.00 l 509.00 488.00 l 509.00 0.00 l 397.00 0.00 l 397.00 61.00 l 395.00 62.00 b 356.33 15.33 306.67 -8.00 246.00 -8.00 z "},"v":{"ha":534,"x_min":20,"x_max":514,"o":"m 320.00 0.00 l 213.00 0.00 l 20.00 488.00 l 140.00 488.00 l 267.00 140.00 l 268.00 140.00 l 395.00 488.00 l 514.00 488.00 l 320.00 0.00 z "},"w":{"ha":771,"x_min":23,"x_max":748,"o":"m 290.00 0.00 l 189.00 0.00 l 23.00 488.00 l 138.00 488.00 l 241.00 164.00 l 243.00 164.00 l 339.00 488.00 l 432.00 488.00 l 530.00 164.00 l 532.00 164.00 l 635.00 488.00 l 748.00 488.00 l 582.00 0.00 l 479.00 0.00 l 385.00 307.00 l 384.00 307.00 l 290.00 0.00 z "},"x":{"ha":527,"x_min":27,"x_max":500,"o":"m 151.00 0.00 l 27.00 0.00 l 199.00 249.00 l 28.00 488.00 l 158.00 488.00 l 261.00 334.00 l 263.00 334.00 l 368.00 488.00 l 497.00 488.00 l 327.00 248.00 l 500.00 0.00 l 375.00 0.00 l 264.00 154.00 l 263.00 154.00 l 151.00 0.00 z "},"y":{"ha":535,"x_min":19,"x_max":515,"o":"m 247.00 -198.00 l 131.00 -198.00 l 219.00 27.00 l 19.00 488.00 l 139.00 488.00 l 273.00 161.00 l 275.00 161.00 l 400.00 488.00 l 515.00 488.00 l 247.00 -198.00 z "},"z":{"ha":489,"x_min":40,"x_max":445,"o":"m 441.00 0.00 l 40.00 0.00 l 40.00 79.00 l 291.00 390.00 l 290.00 393.00 l 57.00 393.00 l 57.00 488.00 l 445.00 488.00 l 445.00 411.00 l 192.00 97.00 l 193.00 95.00 l 441.00 95.00 l 441.00 0.00 z "}," ":{"ha":268,"x_min":0,"x_max":0,"o":""},".":{"ha":270,"x_min":59,"x_max":210,"o":"m 135.00 -8.00 l 135.00 -8.00 b 113.67 -8.00 95.67 -0.83 81.00 13.50 b 66.33 27.83 59.00 45.33 59.00 66.00 b 59.00 86.67 66.50 104.33 81.50 119.00 b 96.50 133.67 114.33 141.00 135.00 141.00 b 155.67 141.00 173.33 133.67 188.00 119.00 b 202.67 104.33 210.00 86.67 210.00 66.00 b 210.00 45.33 202.67 27.83 188.00 13.50 b 173.33 -0.83 155.67 -8.00 135.00 -8.00 z "},",":{"ha":238,"x_min":27,"x_max":179,"o":"m 109.00 -132.00 l 27.00 -132.00 l 59.00 121.00 l 179.00 121.00 l 109.00 -132.00 z "},"!":{"ha":270,"x_min":59,"x_max":210,"o":"m 181.00 224.00 l 94.00 224.00 l 74.00 736.00 l 201.00 736.00 l 181.00 224.00 z m 135.00 -8.00 l 135.00 -8.00 b 113.67 -8.00 95.67 -0.83 81.00 13.50 b 66.33 27.83 59.00 45.33 59.00 66.00 b 59.00 86.67 66.50 104.33 81.50 119.00 b 96.50 133.67 114.33 141.00 135.00 141.00 b 155.67 141.00 173.33 133.67 188.00 119.00 b 202.67 104.33 210.00 86.67 210.00 66.00 b 210.00 45.33 202.67 27.83 188.00 13.50 b 173.33 -0.83 155.67 -8.00 135.00 -8.00 z "},"?":{"ha":463,"x_min":16,"x_max":421,"o":"m 244.00 224.00 l 145.00 224.00 l 145.00 274.00 b 145.00 280.67 145.33 287.17 146.00 293.50 b 146.67 299.83 148.33 306.33 151.00 313.00 b 153.67 319.67 155.83 325.33 157.50 330.00 b 159.17 334.67 162.33 340.50 167.00 347.50 b 171.67 354.50 175.00 359.50 177.00 362.50 b 179.00 365.50 183.33 370.83 190.00 378.50 b 196.67 386.17 200.83 390.83 202.50 392.50 b 204.17 394.17 209.00 399.17 217.00 407.50 b 225.00 415.83 229.67 420.67 231.00 422.00 l 231.00 422.00 b 251.67 444.67 267.50 465.17 278.50 483.50 b 289.50 501.83 295.00 522.33 295.00 545.00 l 295.00 545.00 b 295.00 573.00 286.67 594.67 270.00 610.00 b 253.33 625.33 231.67 633.00 205.00 633.00 l 205.00 633.00 b 185.67 633.00 166.33 627.67 147.00 617.00 b 127.67 606.33 112.00 592.00 100.00 574.00 l 100.00 574.00 l 16.00 652.00 b 64.67 713.33 130.67 744.00 214.00 744.00 l 214.00 744.00 b 271.33 744.00 320.17 727.17 360.50 693.50 b 400.83 659.83 421.00 612.33 421.00 551.00 l 421.00 551.00 b 421.00 491.67 391.67 433.33 333.00 376.00 l 333.00 376.00 b 328.33 371.33 320.50 364.00 309.50 354.00 b 298.50 344.00 290.33 336.50 285.00 331.50 b 279.67 326.50 273.67 320.00 267.00 312.00 b 260.33 304.00 255.50 296.50 252.50 289.50 b 249.50 282.50 247.67 275.33 247.00 268.00 l 247.00 268.00 l 244.00 224.00 z m 197.00 -8.00 l 197.00 -8.00 b 175.67 -8.00 157.67 -0.83 143.00 13.50 b 128.33 27.83 121.00 45.33 121.00 66.00 b 121.00 86.67 128.50 104.33 143.50 119.00 b 158.50 133.67 176.33 141.00 197.00 141.00 b 217.67 141.00 235.33 133.67 250.00 119.00 b 264.67 104.33 272.00 86.67 272.00 66.00 b 272.00 45.33 264.67 27.83 250.00 13.50 b 235.33 -0.83 217.67 -8.00 197.00 -8.00 z "},"-":{"ha":407,"x_min":53,"x_max":354,"o":"m 354.00 254.00 l 53.00 254.00 l 53.00 363.00 l 354.00 363.00 l 354.00 254.00 z "},":":{"ha":270,"x_min":55,"x_max":206,"o":"m 131.00 346.00 l 131.00 346.00 b 109.67 346.00 91.67 353.17 77.00 367.50 b 62.33 381.83 55.00 399.33 55.00 420.00 b 55.00 440.67 62.50 458.33 77.50 473.00 b 92.50 487.67 110.33 495.00 131.00 495.00 b 151.67 495.00 169.33 487.67 184.00 473.00 b 198.67 458.33 206.00 440.67 206.00 420.00 b 206.00 399.33 198.67 381.83 184.00 367.50 b 169.33 353.17 151.67 346.00 131.00 346.00 z m 131.00 -8.00 l 131.00 -8.00 b 109.67 -8.00 91.67 -0.83 77.00 13.50 b 62.33 27.83 55.00 45.33 55.00 66.00 b 55.00 86.67 62.50 104.33 77.50 119.00 b 92.50 133.67 110.33 141.00 131.00 141.00 b 151.67 141.00 169.33 133.67 184.00 119.00 b 198.67 104.33 206.00 86.67 206.00 66.00 b 206.00 45.33 198.67 27.83 184.00 13.50 b 169.33 -0.83 151.67 -8.00 131.00 -8.00 z "},";":{"ha":248,"x_min":38,"x_max":205,"o":"m 130.00 346.00 l 130.00 346.00 b 108.67 346.00 90.67 353.17 76.00 367.50 b 61.33 381.83 54.00 399.33 54.00 420.00 b 54.00 440.67 61.50 458.33 76.50 473.00 b 91.50 487.67 109.33 495.00 130.00 495.00 b 150.67 495.00 168.33 487.67 183.00 473.00 b 197.67 458.33 205.00 440.67 205.00 420.00 b 205.00 399.33 197.67 381.83 183.00 367.50 b 168.33 353.17 150.67 346.00 130.00 346.00 z m 120.00 -132.00 l 38.00 -132.00 l 70.00 121.00 l 190.00 121.00 l 120.00 -132.00 z "},"'":{"ha":215,"x_min":32,"x_max":183,"o":"m 123.00 457.00 l 32.00 457.00 l 63.00 710.00 l 183.00 710.00 l 123.00 457.00 z "},"\"":{"ha":387,"x_min":32,"x_max":355,"o":"m 123.00 457.00 l 32.00 457.00 l 63.00 710.00 l 183.00 710.00 l 123.00 457.00 z m 295.00 457.00 l 204.00 457.00 l 235.00 710.00 l 355.00 710.00 l 295.00 457.00 z "},"(":{"ha":305,"x_min":55,"x_max":260,"o":"m 258.00 -116.00 l 172.00 -154.00 b 94.00 -24.67 55.00 125.00 55.00 295.00 l 55.00 295.00 b 55.00 471.67 95.00 622.00 175.00 746.00 l 175.00 746.00 l 260.00 707.00 b 192.67 585.00 159.00 447.67 159.00 295.00 l 159.00 295.00 b 159.00 149.67 192.00 12.67 258.00 -116.00 l 258.00 -116.00 z "},")":{"ha":305,"x_min":45,"x_max":250,"o":"m 133.00 -154.00 l 133.00 -154.00 l 47.00 -116.00 b 113.00 12.67 146.00 149.67 146.00 295.00 l 146.00 295.00 b 146.00 447.67 112.33 585.00 45.00 707.00 l 45.00 707.00 l 130.00 746.00 b 210.00 622.00 250.00 471.67 250.00 295.00 l 250.00 295.00 b 250.00 125.00 211.00 -24.67 133.00 -154.00 z "},"&":{"ha":670,"x_min":50,"x_max":645,"o":"m 281.00 -8.00 l 281.00 -8.00 b 215.67 -8.00 160.83 12.00 116.50 52.00 b 72.17 92.00 50.00 143.67 50.00 207.00 l 50.00 207.00 b 50.00 251.67 61.83 291.83 85.50 327.50 b 109.17 363.17 140.33 392.33 179.00 415.00 l 179.00 415.00 l 179.00 417.00 l 101.00 515.00 b 108.33 573.67 132.33 622.17 173.00 660.50 b 213.67 698.83 262.67 718.00 320.00 718.00 l 320.00 718.00 b 419.33 718.00 493.00 671.67 541.00 579.00 l 541.00 579.00 l 445.00 542.00 b 417.00 592.00 378.67 617.33 330.00 618.00 l 330.00 618.00 b 298.67 618.00 273.83 609.67 255.50 593.00 b 237.17 576.33 225.00 555.67 219.00 531.00 l 219.00 531.00 l 470.00 218.00 l 473.00 218.00 b 491.00 257.33 500.00 297.00 500.00 337.00 l 500.00 337.00 l 609.00 339.00 b 609.00 257.00 588.33 185.67 547.00 125.00 l 547.00 125.00 l 547.00 122.00 l 645.00 0.00 l 513.00 0.00 l 469.00 55.00 l 467.00 55.00 b 419.00 13.00 357.00 -8.00 281.00 -8.00 z m 293.00 99.00 l 293.00 99.00 b 335.00 99.00 372.00 110.67 404.00 134.00 l 404.00 134.00 l 404.00 136.00 l 245.00 335.00 b 193.00 307.67 167.00 267.33 167.00 214.00 l 167.00 214.00 b 167.00 180.00 178.67 152.33 202.00 131.00 b 225.33 109.67 255.67 99.00 293.00 99.00 z "}}}
